<mxfile host="app.diagrams.net" modified="2024-06-28T10:37:40.492Z" agent="Mozilla/5.0 (Windows NT 10.0; Win64; x64) AppleWebKit/537.36 (KHTML, like Gecko) Chrome/126.0.0.0 Safari/537.36" etag="Swsots1gMhW2gkAypgsj" version="24.6.1" type="github">
  <diagram name="Page-1" id="0783ab3e-0a74-02c8-0abd-f7b4e66b4bec">
    <mxGraphModel dx="782" dy="316" grid="1" gridSize="10" guides="1" tooltips="1" connect="1" arrows="1" fold="1" page="1" pageScale="1" pageWidth="850" pageHeight="1100" background="none" math="0" shadow="0">
      <root>
        <mxCell id="0" />
        <mxCell id="1" parent="0" />
        <mxCell id="yVpGU99Wx18fHOG96q4R-1" value="" style="ellipse;fillColor=strokeColor;html=1;" parent="1" vertex="1">
          <mxGeometry x="305" y="40" width="30" height="30" as="geometry" />
        </mxCell>
        <mxCell id="yVpGU99Wx18fHOG96q4R-2" value="" style="ellipse;html=1;shape=endState;fillColor=strokeColor;" parent="1" vertex="1">
          <mxGeometry x="305" y="800" width="30" height="30" as="geometry" />
        </mxCell>
        <mxCell id="yVpGU99Wx18fHOG96q4R-4" value="" style="endArrow=classic;html=1;rounded=0;exitX=0.5;exitY=1;exitDx=0;exitDy=0;" parent="1" source="yVpGU99Wx18fHOG96q4R-1" edge="1">
          <mxGeometry width="50" height="50" relative="1" as="geometry">
            <mxPoint x="645" y="190" as="sourcePoint" />
            <mxPoint x="320" y="120" as="targetPoint" />
          </mxGeometry>
        </mxCell>
        <mxCell id="yVpGU99Wx18fHOG96q4R-37" style="edgeStyle=orthogonalEdgeStyle;rounded=0;orthogonalLoop=1;jettySize=auto;html=1;" parent="1" source="yVpGU99Wx18fHOG96q4R-5" target="yVpGU99Wx18fHOG96q4R-34" edge="1">
          <mxGeometry relative="1" as="geometry" />
        </mxCell>
        <mxCell id="yVpGU99Wx18fHOG96q4R-5" value="Scan Environment" style="rounded=1;whiteSpace=wrap;html=1;" parent="1" vertex="1">
          <mxGeometry x="260" y="120" width="120" height="30" as="geometry" />
        </mxCell>
        <mxCell id="yVpGU99Wx18fHOG96q4R-11" style="edgeStyle=orthogonalEdgeStyle;rounded=0;orthogonalLoop=1;jettySize=auto;html=1;exitX=1;exitY=0.5;exitDx=0;exitDy=0;entryX=0.5;entryY=0;entryDx=0;entryDy=0;" parent="1" source="yVpGU99Wx18fHOG96q4R-8" target="yVpGU99Wx18fHOG96q4R-15" edge="1">
          <mxGeometry relative="1" as="geometry">
            <mxPoint x="425" y="320" as="targetPoint" />
          </mxGeometry>
        </mxCell>
        <mxCell id="yVpGU99Wx18fHOG96q4R-44" style="edgeStyle=orthogonalEdgeStyle;rounded=0;orthogonalLoop=1;jettySize=auto;html=1;entryX=0.5;entryY=0;entryDx=0;entryDy=0;exitX=0;exitY=0.5;exitDx=0;exitDy=0;" parent="1" source="yVpGU99Wx18fHOG96q4R-8" target="yVpGU99Wx18fHOG96q4R-43" edge="1">
          <mxGeometry relative="1" as="geometry" />
        </mxCell>
        <mxCell id="yVpGU99Wx18fHOG96q4R-49" value="[No]" style="edgeLabel;html=1;align=center;verticalAlign=middle;resizable=0;points=[];" parent="yVpGU99Wx18fHOG96q4R-44" vertex="1" connectable="0">
          <mxGeometry x="-0.3335" y="1" relative="1" as="geometry">
            <mxPoint x="25" y="-10" as="offset" />
          </mxGeometry>
        </mxCell>
        <mxCell id="yVpGU99Wx18fHOG96q4R-8" value="" style="rhombus;fillColor=#000000;" parent="1" vertex="1">
          <mxGeometry x="296.25" y="360" width="47.5" height="40" as="geometry" />
        </mxCell>
        <mxCell id="yVpGU99Wx18fHOG96q4R-39" style="edgeStyle=orthogonalEdgeStyle;rounded=0;orthogonalLoop=1;jettySize=auto;html=1;entryX=0.5;entryY=0;entryDx=0;entryDy=0;" parent="1" source="yVpGU99Wx18fHOG96q4R-9" target="yVpGU99Wx18fHOG96q4R-35" edge="1">
          <mxGeometry relative="1" as="geometry" />
        </mxCell>
        <mxCell id="yVpGU99Wx18fHOG96q4R-9" value="AI engine" style="rounded=1;whiteSpace=wrap;html=1;" parent="1" vertex="1">
          <mxGeometry x="260" y="240" width="120" height="30" as="geometry" />
        </mxCell>
        <mxCell id="yVpGU99Wx18fHOG96q4R-12" value="[Yes]" style="text;html=1;align=center;verticalAlign=middle;resizable=0;points=[];autosize=1;strokeColor=none;fillColor=none;" parent="1" vertex="1">
          <mxGeometry x="332" y="355" width="50" height="30" as="geometry" />
        </mxCell>
        <mxCell id="yVpGU99Wx18fHOG96q4R-15" value="Alert Manager" style="rounded=1;whiteSpace=wrap;html=1;" parent="1" vertex="1">
          <mxGeometry x="480" y="440" width="120" height="30" as="geometry" />
        </mxCell>
        <mxCell id="yVpGU99Wx18fHOG96q4R-17" value="" style="ellipse;fillColor=strokeColor;html=1;" parent="1" vertex="1">
          <mxGeometry x="410" y="1060" width="30" height="30" as="geometry" />
        </mxCell>
        <mxCell id="yVpGU99Wx18fHOG96q4R-19" value="" style="endArrow=classic;html=1;rounded=0;exitX=0.5;exitY=1;exitDx=0;exitDy=0;" parent="1" source="yVpGU99Wx18fHOG96q4R-17" edge="1">
          <mxGeometry width="50" height="50" relative="1" as="geometry">
            <mxPoint x="750" y="1210" as="sourcePoint" />
            <mxPoint x="425" y="1140" as="targetPoint" />
          </mxGeometry>
        </mxCell>
        <mxCell id="yVpGU99Wx18fHOG96q4R-20" style="edgeStyle=orthogonalEdgeStyle;rounded=0;orthogonalLoop=1;jettySize=auto;html=1;entryX=0.5;entryY=0;entryDx=0;entryDy=0;" parent="1" source="yVpGU99Wx18fHOG96q4R-21" target="yVpGU99Wx18fHOG96q4R-28" edge="1">
          <mxGeometry relative="1" as="geometry">
            <mxPoint x="425" y="1310" as="targetPoint" />
          </mxGeometry>
        </mxCell>
        <mxCell id="yVpGU99Wx18fHOG96q4R-21" value="Receive Obstacle Information" style="rounded=1;whiteSpace=wrap;html=1;" parent="1" vertex="1">
          <mxGeometry x="365" y="1140" width="120" height="30" as="geometry" />
        </mxCell>
        <mxCell id="yVpGU99Wx18fHOG96q4R-27" style="edgeStyle=orthogonalEdgeStyle;rounded=0;orthogonalLoop=1;jettySize=auto;html=1;exitX=0.5;exitY=1;exitDx=0;exitDy=0;entryX=0.5;entryY=0;entryDx=0;entryDy=0;" parent="1" source="yVpGU99Wx18fHOG96q4R-28" target="yVpGU99Wx18fHOG96q4R-79" edge="1">
          <mxGeometry relative="1" as="geometry">
            <mxPoint x="425" y="1300" as="targetPoint" />
          </mxGeometry>
        </mxCell>
        <mxCell id="yVpGU99Wx18fHOG96q4R-28" value="Assess Obstacle Severity" style="rounded=1;whiteSpace=wrap;html=1;" parent="1" vertex="1">
          <mxGeometry x="365" y="1220" width="120" height="30" as="geometry" />
        </mxCell>
        <mxCell id="yVpGU99Wx18fHOG96q4R-33" value="Obstacle detection" style="text;html=1;align=center;verticalAlign=middle;resizable=0;points=[];autosize=1;strokeColor=none;fillColor=none;" parent="1" vertex="1">
          <mxGeometry x="230" y="8" width="120" height="30" as="geometry" />
        </mxCell>
        <mxCell id="yVpGU99Wx18fHOG96q4R-38" style="edgeStyle=orthogonalEdgeStyle;rounded=0;orthogonalLoop=1;jettySize=auto;html=1;entryX=0.5;entryY=0;entryDx=0;entryDy=0;" parent="1" source="yVpGU99Wx18fHOG96q4R-34" target="yVpGU99Wx18fHOG96q4R-9" edge="1">
          <mxGeometry relative="1" as="geometry" />
        </mxCell>
        <mxCell id="yVpGU99Wx18fHOG96q4R-34" value="Preprocess Sensor Data" style="rounded=1;whiteSpace=wrap;html=1;" parent="1" vertex="1">
          <mxGeometry x="260" y="180" width="120" height="30" as="geometry" />
        </mxCell>
        <mxCell id="yVpGU99Wx18fHOG96q4R-40" style="edgeStyle=orthogonalEdgeStyle;rounded=0;orthogonalLoop=1;jettySize=auto;html=1;" parent="1" source="yVpGU99Wx18fHOG96q4R-35" target="yVpGU99Wx18fHOG96q4R-8" edge="1">
          <mxGeometry relative="1" as="geometry" />
        </mxCell>
        <mxCell id="yVpGU99Wx18fHOG96q4R-35" value="Obstacle Detected?" style="rounded=1;whiteSpace=wrap;html=1;" parent="1" vertex="1">
          <mxGeometry x="260" y="296" width="120" height="30" as="geometry" />
        </mxCell>
        <mxCell id="yVpGU99Wx18fHOG96q4R-41" value="Log Obstacle Details" style="rounded=1;whiteSpace=wrap;html=1;" parent="1" vertex="1">
          <mxGeometry x="480" y="500" width="120" height="30" as="geometry" />
        </mxCell>
        <mxCell id="yVpGU99Wx18fHOG96q4R-42" style="edgeStyle=orthogonalEdgeStyle;rounded=0;orthogonalLoop=1;jettySize=auto;html=1;entryX=0.5;entryY=0;entryDx=0;entryDy=0;" parent="1" source="yVpGU99Wx18fHOG96q4R-15" target="yVpGU99Wx18fHOG96q4R-41" edge="1">
          <mxGeometry relative="1" as="geometry" />
        </mxCell>
        <mxCell id="yVpGU99Wx18fHOG96q4R-51" style="edgeStyle=orthogonalEdgeStyle;rounded=0;orthogonalLoop=1;jettySize=auto;html=1;entryX=0;entryY=0.5;entryDx=0;entryDy=0;" parent="1" source="yVpGU99Wx18fHOG96q4R-43" target="yVpGU99Wx18fHOG96q4R-50" edge="1">
          <mxGeometry relative="1" as="geometry" />
        </mxCell>
        <mxCell id="yVpGU99Wx18fHOG96q4R-43" value="Continue Monitoring" style="rounded=1;whiteSpace=wrap;html=1;" parent="1" vertex="1">
          <mxGeometry x="176.25" y="440" width="120" height="30" as="geometry" />
        </mxCell>
        <mxCell id="yVpGU99Wx18fHOG96q4R-54" style="edgeStyle=orthogonalEdgeStyle;rounded=0;orthogonalLoop=1;jettySize=auto;html=1;" parent="1" source="yVpGU99Wx18fHOG96q4R-50" edge="1">
          <mxGeometry relative="1" as="geometry">
            <mxPoint x="320" y="730" as="targetPoint" />
          </mxGeometry>
        </mxCell>
        <mxCell id="yVpGU99Wx18fHOG96q4R-50" value="" style="rhombus;fillColor=#000000;" parent="1" vertex="1">
          <mxGeometry x="296.25" y="670" width="47.5" height="40" as="geometry" />
        </mxCell>
        <mxCell id="yVpGU99Wx18fHOG96q4R-57" style="edgeStyle=orthogonalEdgeStyle;rounded=0;orthogonalLoop=1;jettySize=auto;html=1;entryX=0.5;entryY=0;entryDx=0;entryDy=0;" parent="1" target="yVpGU99Wx18fHOG96q4R-2" edge="1">
          <mxGeometry relative="1" as="geometry">
            <mxPoint x="320" y="760" as="sourcePoint" />
          </mxGeometry>
        </mxCell>
        <mxCell id="yVpGU99Wx18fHOG96q4R-53" value="End of Detection Cycle" style="rounded=1;whiteSpace=wrap;html=1;" parent="1" vertex="1">
          <mxGeometry x="260" y="730" width="120" height="30" as="geometry" />
        </mxCell>
        <mxCell id="yVpGU99Wx18fHOG96q4R-67" style="edgeStyle=orthogonalEdgeStyle;rounded=0;orthogonalLoop=1;jettySize=auto;html=1;entryX=0.5;entryY=0;entryDx=0;entryDy=0;" parent="1" source="yVpGU99Wx18fHOG96q4R-60" target="yVpGU99Wx18fHOG96q4R-64" edge="1">
          <mxGeometry relative="1" as="geometry">
            <Array as="points">
              <mxPoint x="473" y="580" />
              <mxPoint x="473" y="580" />
            </Array>
          </mxGeometry>
        </mxCell>
        <mxCell id="yVpGU99Wx18fHOG96q4R-60" value="" style="html=1;points=[];perimeter=orthogonalPerimeter;fillColor=strokeColor;rotation=-90;" parent="1" vertex="1">
          <mxGeometry x="537.5" y="420" width="5" height="290" as="geometry" />
        </mxCell>
        <mxCell id="yVpGU99Wx18fHOG96q4R-63" style="edgeStyle=orthogonalEdgeStyle;rounded=0;orthogonalLoop=1;jettySize=auto;html=1;entryX=0.686;entryY=0.499;entryDx=0;entryDy=0;entryPerimeter=0;" parent="1" source="yVpGU99Wx18fHOG96q4R-41" target="yVpGU99Wx18fHOG96q4R-60" edge="1">
          <mxGeometry relative="1" as="geometry" />
        </mxCell>
        <mxCell id="yVpGU99Wx18fHOG96q4R-64" value="Notify Control Tower" style="rounded=1;whiteSpace=wrap;html=1;" parent="1" vertex="1">
          <mxGeometry x="415" y="590" width="115" height="20" as="geometry" />
        </mxCell>
        <mxCell id="yVpGU99Wx18fHOG96q4R-71" style="edgeStyle=orthogonalEdgeStyle;rounded=0;orthogonalLoop=1;jettySize=auto;html=1;" parent="1" source="yVpGU99Wx18fHOG96q4R-65" edge="1">
          <mxGeometry relative="1" as="geometry">
            <mxPoint x="615" y="630" as="targetPoint" />
            <Array as="points">
              <mxPoint x="615" y="620" />
              <mxPoint x="615" y="620" />
            </Array>
          </mxGeometry>
        </mxCell>
        <mxCell id="yVpGU99Wx18fHOG96q4R-65" value="Activate Runway Lights" style="rounded=1;whiteSpace=wrap;html=1;" parent="1" vertex="1">
          <mxGeometry x="550" y="590" width="130" height="20" as="geometry" />
        </mxCell>
        <mxCell id="yVpGU99Wx18fHOG96q4R-73" style="edgeStyle=orthogonalEdgeStyle;rounded=0;orthogonalLoop=1;jettySize=auto;html=1;entryX=0.5;entryY=0;entryDx=0;entryDy=0;" parent="1" source="yVpGU99Wx18fHOG96q4R-66" target="yVpGU99Wx18fHOG96q4R-72" edge="1">
          <mxGeometry relative="1" as="geometry" />
        </mxCell>
        <mxCell id="yVpGU99Wx18fHOG96q4R-66" value="" style="html=1;points=[];perimeter=orthogonalPerimeter;fillColor=strokeColor;rotation=-90;" parent="1" vertex="1">
          <mxGeometry x="537.5" y="490" width="5" height="290" as="geometry" />
        </mxCell>
        <mxCell id="yVpGU99Wx18fHOG96q4R-69" style="edgeStyle=orthogonalEdgeStyle;rounded=0;orthogonalLoop=1;jettySize=auto;html=1;entryX=0.165;entryY=0.758;entryDx=0;entryDy=0;entryPerimeter=0;startArrow=classic;startFill=1;endArrow=none;endFill=0;" parent="1" source="yVpGU99Wx18fHOG96q4R-65" target="yVpGU99Wx18fHOG96q4R-60" edge="1">
          <mxGeometry relative="1" as="geometry" />
        </mxCell>
        <mxCell id="yVpGU99Wx18fHOG96q4R-70" style="edgeStyle=orthogonalEdgeStyle;rounded=0;orthogonalLoop=1;jettySize=auto;html=1;entryX=1.5;entryY=0.267;entryDx=0;entryDy=0;entryPerimeter=0;" parent="1" source="yVpGU99Wx18fHOG96q4R-64" target="yVpGU99Wx18fHOG96q4R-66" edge="1">
          <mxGeometry relative="1" as="geometry" />
        </mxCell>
        <mxCell id="yVpGU99Wx18fHOG96q4R-78" style="edgeStyle=orthogonalEdgeStyle;rounded=0;orthogonalLoop=1;jettySize=auto;html=1;entryX=1;entryY=0.5;entryDx=0;entryDy=0;" parent="1" source="yVpGU99Wx18fHOG96q4R-72" target="yVpGU99Wx18fHOG96q4R-50" edge="1">
          <mxGeometry relative="1" as="geometry" />
        </mxCell>
        <mxCell id="yVpGU99Wx18fHOG96q4R-72" value="Dispatch Removal Team" style="rounded=1;whiteSpace=wrap;html=1;" parent="1" vertex="1">
          <mxGeometry x="480" y="675" width="120" height="30" as="geometry" />
        </mxCell>
        <mxCell id="yVpGU99Wx18fHOG96q4R-83" style="edgeStyle=orthogonalEdgeStyle;rounded=0;orthogonalLoop=1;jettySize=auto;html=1;entryX=0.5;entryY=0;entryDx=0;entryDy=0;" parent="1" source="yVpGU99Wx18fHOG96q4R-79" target="yVpGU99Wx18fHOG96q4R-81" edge="1">
          <mxGeometry relative="1" as="geometry" />
        </mxCell>
        <mxCell id="yVpGU99Wx18fHOG96q4R-87" value="[Medium]" style="edgeLabel;html=1;align=center;verticalAlign=middle;resizable=0;points=[];" parent="yVpGU99Wx18fHOG96q4R-83" vertex="1" connectable="0">
          <mxGeometry x="-0.313" y="2" relative="1" as="geometry">
            <mxPoint x="22" as="offset" />
          </mxGeometry>
        </mxCell>
        <mxCell id="yVpGU99Wx18fHOG96q4R-84" style="edgeStyle=orthogonalEdgeStyle;rounded=0;orthogonalLoop=1;jettySize=auto;html=1;entryX=0.5;entryY=0;entryDx=0;entryDy=0;" parent="1" source="yVpGU99Wx18fHOG96q4R-79" target="yVpGU99Wx18fHOG96q4R-80" edge="1">
          <mxGeometry relative="1" as="geometry" />
        </mxCell>
        <mxCell id="yVpGU99Wx18fHOG96q4R-85" style="edgeStyle=orthogonalEdgeStyle;rounded=0;orthogonalLoop=1;jettySize=auto;html=1;entryX=0.5;entryY=0;entryDx=0;entryDy=0;" parent="1" source="yVpGU99Wx18fHOG96q4R-79" target="yVpGU99Wx18fHOG96q4R-82" edge="1">
          <mxGeometry relative="1" as="geometry" />
        </mxCell>
        <mxCell id="yVpGU99Wx18fHOG96q4R-79" value="" style="rhombus;fillColor=#000000;" parent="1" vertex="1">
          <mxGeometry x="401" y="1280" width="47.5" height="40" as="geometry" />
        </mxCell>
        <mxCell id="yVpGU99Wx18fHOG96q4R-91" style="edgeStyle=orthogonalEdgeStyle;rounded=0;orthogonalLoop=1;jettySize=auto;html=1;entryX=0;entryY=0.5;entryDx=0;entryDy=0;" parent="1" source="yVpGU99Wx18fHOG96q4R-80" target="yVpGU99Wx18fHOG96q4R-90" edge="1">
          <mxGeometry relative="1" as="geometry">
            <Array as="points">
              <mxPoint x="160" y="1440" />
            </Array>
          </mxGeometry>
        </mxCell>
        <mxCell id="yVpGU99Wx18fHOG96q4R-80" value="Prioritize as Level 1" style="rounded=1;whiteSpace=wrap;html=1;" parent="1" vertex="1">
          <mxGeometry x="100" y="1350" width="120" height="30" as="geometry" />
        </mxCell>
        <mxCell id="yVpGU99Wx18fHOG96q4R-92" style="edgeStyle=orthogonalEdgeStyle;rounded=0;orthogonalLoop=1;jettySize=auto;html=1;entryX=0.5;entryY=0;entryDx=0;entryDy=0;" parent="1" source="yVpGU99Wx18fHOG96q4R-81" target="yVpGU99Wx18fHOG96q4R-90" edge="1">
          <mxGeometry relative="1" as="geometry" />
        </mxCell>
        <mxCell id="yVpGU99Wx18fHOG96q4R-81" value="Prioritize as Level 2" style="rounded=1;whiteSpace=wrap;html=1;" parent="1" vertex="1">
          <mxGeometry x="364.75" y="1350" width="120" height="30" as="geometry" />
        </mxCell>
        <mxCell id="yVpGU99Wx18fHOG96q4R-93" style="edgeStyle=orthogonalEdgeStyle;rounded=0;orthogonalLoop=1;jettySize=auto;html=1;" parent="1" source="yVpGU99Wx18fHOG96q4R-82" edge="1">
          <mxGeometry relative="1" as="geometry">
            <mxPoint x="450" y="1440" as="targetPoint" />
            <Array as="points">
              <mxPoint x="670" y="1440" />
            </Array>
          </mxGeometry>
        </mxCell>
        <mxCell id="yVpGU99Wx18fHOG96q4R-82" value="Prioritize as Level 3" style="rounded=1;whiteSpace=wrap;html=1;" parent="1" vertex="1">
          <mxGeometry x="610" y="1350" width="120" height="30" as="geometry" />
        </mxCell>
        <mxCell id="yVpGU99Wx18fHOG96q4R-86" value="[High]" style="text;html=1;align=center;verticalAlign=middle;resizable=0;points=[];autosize=1;strokeColor=none;fillColor=none;" parent="1" vertex="1">
          <mxGeometry x="285" y="1278" width="50" height="30" as="geometry" />
        </mxCell>
        <mxCell id="yVpGU99Wx18fHOG96q4R-88" value="[Low]" style="text;html=1;align=center;verticalAlign=middle;resizable=0;points=[];autosize=1;strokeColor=none;fillColor=none;" parent="1" vertex="1">
          <mxGeometry x="495" y="1278" width="50" height="30" as="geometry" />
        </mxCell>
        <mxCell id="yVpGU99Wx18fHOG96q4R-89" value="Notify ATC" style="rounded=1;whiteSpace=wrap;html=1;" parent="1" vertex="1">
          <mxGeometry x="220" y="1520" width="120" height="30" as="geometry" />
        </mxCell>
        <mxCell id="yVpGU99Wx18fHOG96q4R-90" value="" style="rhombus;fillColor=#000000;" parent="1" vertex="1">
          <mxGeometry x="401" y="1420" width="47.5" height="40" as="geometry" />
        </mxCell>
        <mxCell id="yVpGU99Wx18fHOG96q4R-99" style="edgeStyle=orthogonalEdgeStyle;rounded=0;orthogonalLoop=1;jettySize=auto;html=1;entryX=0.5;entryY=0;entryDx=0;entryDy=0;" parent="1" source="yVpGU99Wx18fHOG96q4R-94" target="yVpGU99Wx18fHOG96q4R-95" edge="1">
          <mxGeometry relative="1" as="geometry">
            <Array as="points">
              <mxPoint x="420" y="1510" />
              <mxPoint x="420" y="1510" />
            </Array>
          </mxGeometry>
        </mxCell>
        <mxCell id="yVpGU99Wx18fHOG96q4R-100" style="edgeStyle=orthogonalEdgeStyle;rounded=0;orthogonalLoop=1;jettySize=auto;html=1;entryX=0.5;entryY=0;entryDx=0;entryDy=0;" parent="1" source="yVpGU99Wx18fHOG96q4R-94" target="yVpGU99Wx18fHOG96q4R-89" edge="1">
          <mxGeometry relative="1" as="geometry">
            <Array as="points">
              <mxPoint x="280" y="1500" />
              <mxPoint x="280" y="1500" />
            </Array>
          </mxGeometry>
        </mxCell>
        <mxCell id="yVpGU99Wx18fHOG96q4R-101" style="edgeStyle=orthogonalEdgeStyle;rounded=0;orthogonalLoop=1;jettySize=auto;html=1;entryX=0.5;entryY=0;entryDx=0;entryDy=0;" parent="1" source="yVpGU99Wx18fHOG96q4R-94" target="yVpGU99Wx18fHOG96q4R-96" edge="1">
          <mxGeometry relative="1" as="geometry">
            <Array as="points">
              <mxPoint x="570" y="1510" />
              <mxPoint x="570" y="1510" />
            </Array>
          </mxGeometry>
        </mxCell>
        <mxCell id="yVpGU99Wx18fHOG96q4R-94" value="" style="html=1;points=[];perimeter=orthogonalPerimeter;fillColor=strokeColor;rotation=-90;" parent="1" vertex="1">
          <mxGeometry x="420" y="1265" width="5" height="460" as="geometry" />
        </mxCell>
        <mxCell id="yVpGU99Wx18fHOG96q4R-95" value="Notify Ground Crew" style="rounded=1;whiteSpace=wrap;html=1;" parent="1" vertex="1">
          <mxGeometry x="364.75" y="1520" width="120" height="30" as="geometry" />
        </mxCell>
        <mxCell id="yVpGU99Wx18fHOG96q4R-96" value="Flight Crew" style="rounded=1;whiteSpace=wrap;html=1;" parent="1" vertex="1">
          <mxGeometry x="510" y="1520" width="120" height="30" as="geometry" />
        </mxCell>
        <mxCell id="yVpGU99Wx18fHOG96q4R-98" style="edgeStyle=orthogonalEdgeStyle;rounded=0;orthogonalLoop=1;jettySize=auto;html=1;entryX=0.764;entryY=0.507;entryDx=0;entryDy=0;entryPerimeter=0;" parent="1" source="yVpGU99Wx18fHOG96q4R-90" target="yVpGU99Wx18fHOG96q4R-94" edge="1">
          <mxGeometry relative="1" as="geometry">
            <Array as="points">
              <mxPoint x="425" y="1480" />
              <mxPoint x="425" y="1480" />
              <mxPoint x="425" y="1494" />
            </Array>
          </mxGeometry>
        </mxCell>
        <mxCell id="yVpGU99Wx18fHOG96q4R-107" style="edgeStyle=orthogonalEdgeStyle;rounded=0;orthogonalLoop=1;jettySize=auto;html=1;entryX=0.5;entryY=0;entryDx=0;entryDy=0;" parent="1" source="yVpGU99Wx18fHOG96q4R-102" target="yVpGU99Wx18fHOG96q4R-106" edge="1">
          <mxGeometry relative="1" as="geometry">
            <Array as="points">
              <mxPoint x="425" y="1590" />
              <mxPoint x="425" y="1590" />
            </Array>
          </mxGeometry>
        </mxCell>
        <mxCell id="yVpGU99Wx18fHOG96q4R-102" value="" style="html=1;points=[];perimeter=orthogonalPerimeter;fillColor=strokeColor;rotation=-90;" parent="1" vertex="1">
          <mxGeometry x="420" y="1350" width="5" height="460" as="geometry" />
        </mxCell>
        <mxCell id="yVpGU99Wx18fHOG96q4R-103" style="edgeStyle=orthogonalEdgeStyle;rounded=0;orthogonalLoop=1;jettySize=auto;html=1;entryX=0.713;entryY=0.191;entryDx=0;entryDy=0;entryPerimeter=0;" parent="1" source="yVpGU99Wx18fHOG96q4R-89" target="yVpGU99Wx18fHOG96q4R-102" edge="1">
          <mxGeometry relative="1" as="geometry" />
        </mxCell>
        <mxCell id="yVpGU99Wx18fHOG96q4R-104" style="edgeStyle=orthogonalEdgeStyle;rounded=0;orthogonalLoop=1;jettySize=auto;html=1;entryX=1.2;entryY=0.506;entryDx=0;entryDy=0;entryPerimeter=0;" parent="1" source="yVpGU99Wx18fHOG96q4R-95" target="yVpGU99Wx18fHOG96q4R-102" edge="1">
          <mxGeometry relative="1" as="geometry" />
        </mxCell>
        <mxCell id="yVpGU99Wx18fHOG96q4R-105" style="edgeStyle=orthogonalEdgeStyle;rounded=0;orthogonalLoop=1;jettySize=auto;html=1;entryX=1.2;entryY=0.821;entryDx=0;entryDy=0;entryPerimeter=0;" parent="1" source="yVpGU99Wx18fHOG96q4R-96" target="yVpGU99Wx18fHOG96q4R-102" edge="1">
          <mxGeometry relative="1" as="geometry" />
        </mxCell>
        <mxCell id="yVpGU99Wx18fHOG96q4R-109" style="edgeStyle=orthogonalEdgeStyle;rounded=0;orthogonalLoop=1;jettySize=auto;html=1;entryX=0.5;entryY=0;entryDx=0;entryDy=0;" parent="1" source="yVpGU99Wx18fHOG96q4R-106" target="yVpGU99Wx18fHOG96q4R-108" edge="1">
          <mxGeometry relative="1" as="geometry" />
        </mxCell>
        <mxCell id="yVpGU99Wx18fHOG96q4R-106" value="Severity Level 1?" style="rounded=1;whiteSpace=wrap;html=1;" parent="1" vertex="1">
          <mxGeometry x="364.75" y="1620" width="120" height="30" as="geometry" />
        </mxCell>
        <mxCell id="yVpGU99Wx18fHOG96q4R-113" style="edgeStyle=orthogonalEdgeStyle;rounded=0;orthogonalLoop=1;jettySize=auto;html=1;entryX=0.5;entryY=0;entryDx=0;entryDy=0;" parent="1" source="yVpGU99Wx18fHOG96q4R-108" target="yVpGU99Wx18fHOG96q4R-110" edge="1">
          <mxGeometry relative="1" as="geometry" />
        </mxCell>
        <mxCell id="yVpGU99Wx18fHOG96q4R-114" style="edgeStyle=orthogonalEdgeStyle;rounded=0;orthogonalLoop=1;jettySize=auto;html=1;entryX=0.5;entryY=0;entryDx=0;entryDy=0;" parent="1" source="yVpGU99Wx18fHOG96q4R-108" target="yVpGU99Wx18fHOG96q4R-111" edge="1">
          <mxGeometry relative="1" as="geometry" />
        </mxCell>
        <mxCell id="yVpGU99Wx18fHOG96q4R-108" value="" style="rhombus;fillColor=#000000;" parent="1" vertex="1">
          <mxGeometry x="401" y="1680" width="47.5" height="40" as="geometry" />
        </mxCell>
        <mxCell id="yVpGU99Wx18fHOG96q4R-115" style="edgeStyle=orthogonalEdgeStyle;rounded=0;orthogonalLoop=1;jettySize=auto;html=1;entryX=0.5;entryY=0;entryDx=0;entryDy=0;" parent="1" source="yVpGU99Wx18fHOG96q4R-110" target="yVpGU99Wx18fHOG96q4R-112" edge="1">
          <mxGeometry relative="1" as="geometry" />
        </mxCell>
        <mxCell id="yVpGU99Wx18fHOG96q4R-110" value="Escalate to Emergency Response Team" style="rounded=1;whiteSpace=wrap;html=1;" parent="1" vertex="1">
          <mxGeometry x="230" y="1730" width="135" height="30" as="geometry" />
        </mxCell>
        <mxCell id="yVpGU99Wx18fHOG96q4R-117" style="edgeStyle=orthogonalEdgeStyle;rounded=0;orthogonalLoop=1;jettySize=auto;html=1;entryX=1;entryY=0.5;entryDx=0;entryDy=0;" parent="1" source="yVpGU99Wx18fHOG96q4R-111" target="yVpGU99Wx18fHOG96q4R-116" edge="1">
          <mxGeometry relative="1" as="geometry">
            <Array as="points">
              <mxPoint x="530" y="1840" />
            </Array>
          </mxGeometry>
        </mxCell>
        <mxCell id="yVpGU99Wx18fHOG96q4R-111" value="Log Incident" style="rounded=1;whiteSpace=wrap;html=1;" parent="1" vertex="1">
          <mxGeometry x="470" y="1730" width="120" height="30" as="geometry" />
        </mxCell>
        <mxCell id="yVpGU99Wx18fHOG96q4R-118" style="edgeStyle=orthogonalEdgeStyle;rounded=0;orthogonalLoop=1;jettySize=auto;html=1;entryX=0;entryY=0.5;entryDx=0;entryDy=0;exitX=0.5;exitY=1;exitDx=0;exitDy=0;" parent="1" source="yVpGU99Wx18fHOG96q4R-112" target="yVpGU99Wx18fHOG96q4R-116" edge="1">
          <mxGeometry relative="1" as="geometry" />
        </mxCell>
        <mxCell id="yVpGU99Wx18fHOG96q4R-112" value="Log Incident" style="rounded=1;whiteSpace=wrap;html=1;" parent="1" vertex="1">
          <mxGeometry x="237.5" y="1780" width="120" height="30" as="geometry" />
        </mxCell>
        <mxCell id="yVpGU99Wx18fHOG96q4R-120" style="edgeStyle=orthogonalEdgeStyle;rounded=0;orthogonalLoop=1;jettySize=auto;html=1;entryX=0.5;entryY=0;entryDx=0;entryDy=0;" parent="1" source="yVpGU99Wx18fHOG96q4R-116" target="yVpGU99Wx18fHOG96q4R-119" edge="1">
          <mxGeometry relative="1" as="geometry" />
        </mxCell>
        <mxCell id="yVpGU99Wx18fHOG96q4R-116" value="" style="rhombus;fillColor=#000000;" parent="1" vertex="1">
          <mxGeometry x="401" y="1820" width="47.5" height="40" as="geometry" />
        </mxCell>
        <mxCell id="yVpGU99Wx18fHOG96q4R-119" value="" style="ellipse;html=1;shape=endState;fillColor=strokeColor;" parent="1" vertex="1">
          <mxGeometry x="409.75" y="1890" width="30" height="30" as="geometry" />
        </mxCell>
        <mxCell id="e0KyjRSIXtj_pvD0PJb1-1" value="[No]" style="text;html=1;align=center;verticalAlign=middle;resizable=0;points=[];autosize=1;strokeColor=none;fillColor=none;" vertex="1" parent="1">
          <mxGeometry x="455" y="1676" width="50" height="30" as="geometry" />
        </mxCell>
        <mxCell id="e0KyjRSIXtj_pvD0PJb1-2" value="[Yes]" style="text;html=1;align=center;verticalAlign=middle;resizable=0;points=[];autosize=1;strokeColor=none;fillColor=none;" vertex="1" parent="1">
          <mxGeometry x="357.5" y="1676" width="50" height="30" as="geometry" />
        </mxCell>
      </root>
    </mxGraphModel>
  </diagram>
</mxfile>
